<?xml version="1.0" encoding="utf-8"?>
<!-- Generator: Adobe Illustrator 19.2.1, SVG Export Plug-In . SVG Version: 6.00 Build 0)  -->
<svg version="1.1" id="Layer_1" xmlns="http://www.w3.org/2000/svg" xmlns:xlink="http://www.w3.org/1999/xlink" x="0px" y="0px"
	 viewBox="0 0 233.7 91" style="enable-background:new 0 0 233.7 91;" xml:space="preserve">
<style type="text/css">
	.st0{fill:#333333;}
	.st1{fill:#C8C82D;}
</style>
<g id="_Grupo_">
	<g id="_Grupo_2">
		<path id="_Trazado_compuesto_" class="st0" d="M102.7,65c0.1,2-0.8,4-2.4,5.2s-4,1.8-7.1,1.8c-1.4,0-2.8-0.1-4.2-0.3
			c-1.1-0.2-2.2-0.6-3.2-1v-5c1.2,0.6,2.5,1,3.8,1.3c1.2,0.3,2.5,0.5,3.7,0.5c2.2,0,3.3-0.6,3.3-1.9c0-0.4-0.1-0.9-0.4-1.2
			c-0.5-0.4-1-0.7-1.5-1C94,63,93,62.6,91.8,62.1c-1.3-0.5-2.6-1.2-3.8-2c-0.8-0.6-1.4-1.3-1.8-2.1c-0.4-0.9-0.6-1.9-0.6-2.9
			c-0.1-1.8,0.8-3.6,2.3-4.6c2-1.2,4.2-1.8,6.5-1.6c2.7,0,5.4,0.6,7.8,1.8l-1.8,4.4c-1.1-0.5-2.1-0.8-3.1-1.1s-2-0.5-3-0.5
			c-1.8,0-2.7,0.5-2.7,1.5c0,0.6,0.4,1.1,0.9,1.4c1.2,0.7,2.5,1.3,3.8,1.7c1.4,0.5,2.6,1.2,3.8,2c0.8,0.5,1.4,1.3,1.8,2.1
			C102.5,63,102.7,64,102.7,65z"/>
		<path id="_Trazado_compuesto_2" class="st0" d="M127.2,60.4c0,3.6-1,6.5-2.9,8.5c-2.1,2.1-5,3.2-8,3.1c-2,0-3.9-0.4-5.7-1.4
			c-1.6-0.9-2.9-2.3-3.8-4c-0.9-1.9-1.4-4-1.3-6.1c0-3.6,1-6.5,2.8-8.5c1.9-2,4.6-3,8-3c2,0,3.9,0.4,5.7,1.4c1.6,0.9,2.9,2.3,3.8,4
			C126.8,56.3,127.3,58.3,127.2,60.4z M111.8,60.4c-0.1,1.7,0.3,3.5,1.1,5c0.8,1.2,2.1,1.8,3.5,1.7c1.4,0.1,2.7-0.5,3.5-1.7
			c0.8-1.5,1.2-3.3,1.1-5c0.1-1.7-0.3-3.5-1.1-5c-1.6-1.9-4.5-2.2-6.5-0.5c-0.2,0.2-0.4,0.3-0.5,0.5C112.1,57,111.7,58.7,111.8,60.4
			z"/>
		<path id="_Trazado_compuesto_3" class="st0" d="M143.4,72c-2.4,0.1-4.7-1-6.2-2.8h-0.3c0.2,1.9,0.3,2.9,0.3,3.2v6.4h-6.1V49.3h4.9
			l0.9,2.9h0.3c1.3-2.2,3.8-3.4,6.3-3.3c2.4-0.1,4.8,1,6.2,3c1.5,2,2.2,4.8,2.2,8.5c0.1,2.1-0.3,4.2-1,6.2c-0.6,1.6-1.6,3-3,4
			C146.6,71.5,145,72,143.4,72z M141.6,53.8c-1.3-0.1-2.5,0.4-3.3,1.4c-0.8,1.4-1.2,3-1.1,4.6v0.7c0,2.4,0.4,4.1,1.1,5.1
			c0.8,1.1,2.1,1.7,3.4,1.6c2.7,0,4.1-2.2,4.1-6.7c0.1-1.7-0.2-3.4-1-4.9C144.1,54.3,142.8,53.7,141.6,53.8L141.6,53.8z"/>
		<path id="_Trazado_compuesto_4" class="st0" d="M156.3,43.6c0-2,1.1-3,3.3-3s3.3,1,3.3,3c0,0.8-0.3,1.6-0.8,2.2
			c-0.7,0.6-1.6,0.9-2.5,0.8C157.4,46.5,156.3,45.6,156.3,43.6z M162.6,71.6h-6.1V49.3h6.1V71.6z"/>
		<path id="_Trazado_compuesto_5" class="st0" d="M188.6,71.6h-6.1v-13c0.1-1.3-0.2-2.5-0.9-3.6c-0.6-0.8-1.7-1.3-2.7-1.2
			c-1.4-0.1-2.8,0.5-3.7,1.7c-0.8,1.1-1.1,3-1.1,5.7v10.5H168V49.3h4.6l0.8,2.8h0.3c0.7-1.1,1.6-1.9,2.8-2.4
			c1.3-0.6,2.7-0.9,4.1-0.8c2.2-0.2,4.3,0.6,5.9,2.1c1.4,1.7,2.2,3.9,2,6.1L188.6,71.6z"/>
		<path id="_Trazado_compuesto_6" class="st0" d="M203.8,72c-3.6,0-6.4-1-8.4-3s-3-4.8-3-8.4c0-3.7,0.9-6.6,2.8-8.7
			c2-2.1,4.8-3.2,7.7-3.1c2.7-0.2,5.4,0.8,7.4,2.7c1.8,2,2.8,4.7,2.6,7.4v3h-14.4c0,1.5,0.5,2.9,1.5,4c1.1,1,2.5,1.5,4,1.4
			c1.3,0,2.6-0.1,3.8-0.4c1.3-0.3,2.5-0.8,3.8-1.3v4.7c-1.1,0.5-2.2,0.9-3.4,1.2C206.8,71.9,205.3,72,203.8,72z M202.9,53.2
			c-1.1-0.1-2.2,0.4-3,1.2c-0.8,1-1.2,2.2-1.3,3.5h8.5c0-1.3-0.4-2.5-1.2-3.5C205.2,53.6,204.1,53.2,202.9,53.2L202.9,53.2z"/>
		<path id="_Trazado_compuesto_7" class="st0" d="M227.1,67.2c1.3,0,2.6-0.3,3.8-0.7V71c-1.8,0.7-3.7,1.1-5.6,1
			c-2.4,0-4.2-0.6-5.3-1.8c-1.1-1.2-1.7-3.1-1.7-5.5V53.9h-2.9v-2.6l3.4-2l1.8-4.7h3.9v4.7h6.2v4.6h-6.2v10.7
			c-0.1,0.7,0.2,1.4,0.7,1.9S226.4,67.2,227.1,67.2z"/>
	</g>
	<g id="_Grupo_3">
		<path id="_Trazado_" class="st1" d="M50,70.7c-0.3-0.6-1-1-1.7-0.9c-0.4,0-0.8,0.1-1.2,0.1c-3.3,0-6.4-1.4-8.6-3.9
			c-0.5-0.5-1.2-0.7-1.8-0.4l-22.5,8.6c-0.9,0.3-1.3,1.3-1,2.2c0.1,0.2,0.2,0.4,0.3,0.5C24.4,88.3,41,92,55.7,86.5l0,0
			c0.9-0.3,1.3-1.3,1-2.1c0-0.1-0.1-0.1-0.1-0.2L50,70.7z"/>
		<path id="_Trazado_2" class="st1" d="M73.7,51.5L59.2,57c-0.3,0.2-0.5,0.5-0.5,0.9l0,0c0,0.2,0,0.3,0,0.5c0,2.9-1.1,5.6-3,7.8
			c-0.5,0.5-0.6,1.2-0.3,1.9l6.6,13c0.4,0.8,1.4,1.2,2.3,0.7c0.1,0,0.2-0.1,0.2-0.1c1.2-0.8,2.4-1.8,3.5-2.7l0.1-0.1
			c6.7-6.9,9.7-16.7,7.8-26.1c-0.2-0.9-1-1.5-1.9-1.4C73.9,51.4,73.8,51.4,73.7,51.5z"/>
		<path id="_Trazado_3" class="st1" d="M96.3,34.7C89.7,15.2,71.4,2.1,50.8,2.1h-1c-26,0-47.1,21.1-47.1,47.1l0,0c0,0.2,0,0.3,0,0.5
			c0,6.6,1.7,13.1,4.9,18.9c0.4,0.7,1.2,1,2,0.7L35,59.6c0.4-0.1,0.6-0.4,0.6-0.8l0,0c0,0,0-0.3,0-0.5c0-6.3,5.2-11.5,11.5-11.4
			c3.2,0,6.3,1.4,8.5,3.8c0.5,0.5,1.2,0.7,1.8,0.4l37.8-14.4C96.1,36.4,96.6,35.5,96.3,34.7z"/>
	</g>
</g>
</svg>
