<?xml version="1.0" encoding="utf-8"?>
<!-- Generator: Adobe Illustrator 19.2.1, SVG Export Plug-In . SVG Version: 6.00 Build 0)  -->
<svg version="1.1" id="Layer_1" xmlns="http://www.w3.org/2000/svg" xmlns:xlink="http://www.w3.org/1999/xlink" x="0px" y="0px"
	 viewBox="0 0 32 32" style="enable-background:new 0 0 32 32;" xml:space="preserve">
<style type="text/css">
	.st0{fill:#C8C82D;}
</style>
<title>icon_favicon</title>
<g id="_Recortar_grupo_">
	<g>
		<defs>
			<rect id="SVGID_1_" x="-354.1" y="54.7" width="309.3" height="55.4"/>
		</defs>
		<clipPath id="SVGID_2_">
			<use xlink:href="#SVGID_1_"  style="overflow:visible;"/>
		</clipPath>
	</g>
</g>
<g id="_Grupo_">
	<path id="_Trazado_" class="st0" d="M16.1,24.2c-0.1-0.2-0.3-0.3-0.5-0.3h-0.4c-1.1,0-2.1-0.5-2.8-1.3c-0.2-0.2-0.4-0.2-0.6-0.1
		l-7.3,2.8C4.2,25.4,4,25.7,4.2,26c0,0.1,0.1,0.1,0.1,0.2c3.5,3.7,8.9,4.9,13.7,3.1l0,0c0.3-0.1,0.4-0.4,0.3-0.7c0,0,0,0,0-0.1
		L16.1,24.2z"/>
	<path id="_Trazado_2" class="st0" d="M23.9,17.9l-4.7,1.8C19,19.8,19,19.9,19,20l0,0c0,0.1,0,0.1,0,0.2c0,0.9-0.4,1.8-1,2.5
		c-0.2,0.2-0.2,0.4-0.1,0.6l2.1,4.3c0.1,0.3,0.5,0.4,0.7,0.2c0,0,0,0,0.1,0c0.4-0.3,0.8-0.6,1.2-0.9l0,0c2.2-2.2,3.2-5.4,2.5-8.5
		C24.5,18.1,24.2,17.9,23.9,17.9C23.9,17.9,23.9,17.9,23.9,17.9z"/>
	<path id="_Trazado_3" class="st0" d="M31.3,12.5C29.1,6.1,23.1,1.9,16.4,1.9h-0.3C7.6,1.9,0.7,8.7,0.7,17.2l0,0c0,0,0,0.1,0,0.2
		c0,2.2,0.5,4.3,1.6,6.2c0.1,0.2,0.4,0.3,0.7,0.2l8.3-3.2c0.1,0,0.2-0.1,0.2-0.3l0,0c0,0,0-0.1,0-0.1c0-2.1,1.6-3.8,3.7-3.8
		c1.1,0,2.1,0.4,2.8,1.3c0.1,0.2,0.4,0.2,0.6,0.1l12.3-4.7C31.2,13,31.3,12.7,31.3,12.5z"/>
</g>
</svg>
